<?xml version="1.0" standalone="no"?>
<!DOCTYPE svg PUBLIC "-//W3C//DTD SVG 1.1//EN" "http://www.w3.org/Graphics/SVG/1.1/DTD/svg11.dtd" >
<svg xmlns="http://www.w3.org/2000/svg">
<metadata></metadata>
<defs>
<font id="helvcondensedregular" horiz-adv-x="500" >
<font-face units-per-em="1000" ascent="800" descent="-200" />
<missing-glyph horiz-adv-x="250" />
<glyph unicode="&#xd;" horiz-adv-x="250" />
<glyph unicode=" "  horiz-adv-x="250" />
<glyph unicode="&#x09;" horiz-adv-x="250" />
<glyph unicode="&#xa0;" horiz-adv-x="250" />
<glyph unicode="!" horiz-adv-x="333" d="M212 520l-23 -337h-45l-23 337v230h91v-230zM212 0h-91v100h91v-100z" />
<glyph unicode="&#x22;" horiz-adv-x="250" d="M207 513h-52v226h52v-226zM96 513h-52v226h52v-226z" />
<glyph unicode="#" d="M495 496l-17 -59h-112l-38 -124h112l-15 -59h-115l-78 -254h-55l78 254h-87l-80 -254h-55l79 254h-107l17 59h108l38 124h-109l17 59h109l79 254h55l-78 -254h88l77 254h56l-78 -254h111zM311 437h-88l-37 -124h87z" />
<glyph unicode="$" d="M465 202q0 -98 -47 -155q-51 -62 -150 -62v-101h-42v101q-110 0 -157 72q-34 52 -34 141l1 34h80q0 -62 4.5 -92t24.5 -50q13 -13 32.5 -20.5t48.5 -7.5v280q-99 44 -138 85q-46 48 -46 125q0 90 53 144t131 54v65h44v-65q79 0 123 -44q51 -51 51 -156h-81q0 68 -20 96.5 t-73 28.5v-255q116 -51 150 -85q45 -45 45 -133zM226 436v239q-52 0 -77 -35q-21 -29 -21 -79q0 -46 21 -72t77 -53zM379 184q0 58 -24 86.5t-87 55.5v-264q111 0 111 122z" />
<glyph unicode="%" horiz-adv-x="833" d="M756 183q0 -94 -35.5 -138.5t-105.5 -44.5q-63 0 -96 51.5t-33 132.5q0 82 28 125q34 53 110 53q69 0 102 -49q30 -45 30 -130zM595 750l-332 -765h-54l335 765h51zM325 553q0 -180 -122 -180q-80 0 -114 45t-34 140q0 83 30 127q35 51 109 51q68 0 101 -52 q30 -47 30 -131zM689 176q0 130 -69 130q-34 0 -50.5 -31t-16.5 -99q0 -120 69 -120q39 0 55 38q12 29 12 82zM258 550q0 130 -69 130q-34 0 -50.5 -31t-16.5 -99q0 -120 69 -120q39 0 55 38q12 29 12 82z" />
<glyph unicode="&#x26;" horiz-adv-x="667" d="M620 -2h-101l-47 69q-33 -41 -76 -63t-103 -22q-101 0 -159.5 59.5t-58.5 157.5q0 78 40 132q33 45 114 96q-40 52 -55.5 89.5t-15.5 79.5q0 61 36 105q40 49 108 49q69 0 112 -42t43 -107q0 -48 -28 -91q-32 -49 -101 -96l144 -210q14 42 21.5 73t7.5 67h74 q0 -68 -16 -121q-11 -35 -38 -86zM375 600q0 36 -18.5 59.5t-51.5 23.5q-34 0 -52.5 -24.5t-18.5 -55.5q0 -27 13 -57.5t45 -76.5q46 34 66 68q17 29 17 63zM428 127l-163 243q-56 -41 -80 -80.5t-24 -90.5q0 -69 42 -107q38 -35 98 -35q33 0 63 15t64 55z" />
<glyph unicode="'" horiz-adv-x="250" d="M151 513h-52v226h52v-226z" />
<glyph unicode="(" horiz-adv-x="333" d="M289 -215h-58q-74 122 -110 223q-45 126 -45 250q0 105 20 192q17 76 55 156q26 56 80 144h53q-42 -82 -61 -130q-29 -73 -46 -157t-17 -188q0 -144 29.5 -256t99.5 -234z" />
<glyph unicode=")" horiz-adv-x="333" d="M257 277q0 -105 -18.5 -186.5t-56.5 -161.5q-26 -56 -80 -144h-53q41 81 61 130q30 73 46.5 156.5t16.5 188.5q0 144 -29.5 256t-99.5 234h58q74 -122 110 -223q45 -126 45 -250z" />
<glyph unicode="*" d="M405 621l-114 -38l76 -96l-41 -32l-78 99l-72 -94l-43 27l75 93l-112 45l17 44l113 -44v125h52v-122l111 41z" />
<glyph unicode="+" d="M457 219h-172v-219h-70v219h-171v70h171v216h70v-216h172v-70z" />
<glyph unicode="," horiz-adv-x="250" d="M171 100v-50q0 -93 -13 -127q-18 -47 -78 -69v45q49 14 49 101h-49v100h91z" />
<glyph unicode="-" horiz-adv-x="333" d="M288 275h-243v83h243v-83z" />
<glyph unicode="." horiz-adv-x="250" d="M171 0h-91v100h91v-100z" />
<glyph unicode="/" horiz-adv-x="278" d="M291 750l-243 -777h-61l243 777h61z" />
<glyph unicode="0" d="M455 386q0 -124 -8 -183q-14 -101 -54 -154q-49 -64 -142 -64q-89 0 -138 63q-40 52 -56 149q-11 69 -11 172q0 220 58 306q50 75 147 75q90 0 139 -59q41 -49 55 -140q10 -63 10 -165zM369 347v100q0 106 -24 160q-30 68 -102 68q-65 0 -92 -81q-20 -60 -20 -173v-153 q0 -106 27 -157t92 -51q71 0 98 81q21 63 21 206z" />
<glyph unicode="1" d="M317 0h-83v546h-160v65q84 0 120 22q50 30 58 117h65v-750z" />
<glyph unicode="2" d="M447 0h-403q0 47 7.5 90t25.5 78q15 29 56 69l144 139q44 43 60.5 75.5t16.5 90.5t-21 91q-27 42 -87 42q-62 0 -87.5 -41.5t-25.5 -117.5v-21h-83v42q0 101 52 157t144 56q93 0 143.5 -55.5t50.5 -155.5q0 -80 -36 -138q-23 -36 -85 -94l-136 -124q-28 -26 -40.5 -49.5 t-12.5 -58.5h317v-75z" />
<glyph unicode="3" d="M447 219q0 -113 -53.5 -173.5t-156.5 -60.5q-116 0 -164 76q-35 55 -35 159h82l-1 -28q0 -61 30.5 -96.5t94.5 -35.5q57 0 88.5 35.5t31.5 99.5q0 99 -45 130q-34 24 -131 24v75q84 0 113 18q42 26 42 113q0 65 -26.5 92.5t-79.5 27.5q-66 0 -90 -48q-16 -32 -16 -99h-79 v12q0 102 50 156t137 54q85 0 136.5 -50.5t51.5 -135.5q0 -69 -25.5 -109t-79.5 -60q53 -12 86 -51q39 -47 39 -125z" />
<glyph unicode="4" d="M451 187h-67v-187h-83v187h-273v77l280 486h76v-488h67v-75zM301 262v358l-207 -358h207z" />
<glyph unicode="5" d="M446 253q0 -119 -46 -188q-54 -80 -162 -80q-103 0 -154 64q-41 51 -41 127v20h86v-16q0 -50 19 -78q28 -42 94 -42q55 0 86.5 48.5t31.5 130.5q0 88 -29 133t-96 45q-39 0 -65 -17.5t-40 -50.5h-74l44 386h319v-75h-252l-33 -222q52 54 120 54q89 0 140.5 -63.5 t51.5 -175.5z" />
<glyph unicode="6" d="M458 248q0 -119 -55 -191t-145 -72q-128 0 -178 107q-37 80 -37 242q0 123 12 194q18 104 62 158q53 64 150 64q78 0 125.5 -46.5t47.5 -132.5h-85q0 55 -25.5 79.5t-72.5 24.5q-77 0 -109 -95q-23 -68 -23 -196q19 39 53 64q38 28 86 28q95 0 147 -69q47 -62 47 -159z M372 241q0 78 -29 119t-91 41q-29 0 -48.5 -8.5t-33.5 -22.5q-20 -20 -27.5 -54.5t-7.5 -86.5q0 -44 9.5 -80.5t32.5 -59.5q16 -16 36.5 -22.5t40.5 -6.5q63 0 92 52q26 46 26 129z" />
<glyph unicode="7" d="M456 666q-112 -154 -174 -307q-73 -181 -73 -359h-93q23 190 101 371q68 157 170 289h-343v75h412v-69z" />
<glyph unicode="8" d="M454 224q0 -106 -47 -169q-52 -70 -153 -70q-103 0 -155.5 60.5t-52.5 169.5q0 80 43 131q39 46 99 58q-119 23 -119 166q0 82 50 131t139 49q84 0 129.5 -47.5t45.5 -135.5q0 -67 -29.5 -108.5t-83.5 -52.5q56 -10 92 -52q42 -49 42 -130zM347 558q0 55 -19 83 q-23 34 -75 34q-98 0 -98 -117q0 -58 25.5 -88.5t73.5 -30.5q54 0 76 39q17 30 17 80zM368 217q0 74 -32 110.5t-86 36.5q-56 0 -87 -38t-31 -108q0 -77 30.5 -117.5t93.5 -40.5q54 0 83 43t29 114z" />
<glyph unicode="9" d="M458 411q0 -121 -11 -193q-17 -108 -60 -164q-53 -69 -151 -69q-79 0 -127 46t-48 133h85q0 -55 27 -81q24 -23 72 -23q75 0 107 95q24 71 24 196q-19 -39 -55 -65.5t-84 -26.5q-95 0 -147 68q-47 62 -47 159q0 119 55 191.5t145 72.5q125 0 176 -102q39 -79 39 -237z M368 489q0 99 -37 146q-31 40 -85 40q-62 0 -92 -53q-25 -45 -25 -123q0 -76 28.5 -120.5t89.5 -44.5q57 0 89 40t32 115z" />
<glyph unicode=":" horiz-adv-x="250" d="M171 447h-91v100h91v-100zM171 0h-91v100h91v-100z" />
<glyph unicode=";" horiz-adv-x="250" d="M171 447h-91v100h91v-100zM171 100v-50q0 -93 -13 -127q-18 -47 -78 -69v45q49 14 49 101h-49v100h91z" />
<glyph unicode="&#x3c;" d="M459 -10l-417 232v64l417 232v-73l-339 -191l339 -191v-73z" />
<glyph unicode="=" d="M457 314h-413v70h413v-70zM457 124h-413v70h413v-70z" />
<glyph unicode="&#x3e;" d="M459 222l-417 -232v73l339 191l-339 191v73l417 -232v-64z" />
<glyph unicode="?" d="M462 561q0 -52 -16 -90q-19 -45 -70 -101q-47 -51 -58 -66q-31 -40 -31 -93v-39h-89v10q0 66 13.5 102.5t63.5 91.5q60 65 80 105q16 32 16 73q0 54 -24 88q-27 38 -76 38q-69 0 -99 -46q-25 -39 -25 -120h-87v20q0 89 44 147q53 69 154 69q94 0 149 -52t55 -137zM289 0 h-91v100h91v-100z" />
<glyph unicode="@" horiz-adv-x="800" d="M764 432q0 -111 -74.5 -203t-159.5 -92q-32 0 -56.5 13.5t-33.5 39.5q-24 -24 -54.5 -37.5t-65.5 -13.5q-59 0 -99.5 41.5t-40.5 109.5q0 110 68 203q75 103 181 103q81 0 115 -67l14 47h69l-107 -317q-3 -8 -6 -19t-3 -21q0 -15 9 -22t20 -7q57 0 112 68q61 76 61 177 q0 117 -87.5 191.5t-209.5 74.5q-136 0 -232.5 -97.5t-96.5 -239.5q0 -139 101 -236q98 -94 229 -94q81 0 151.5 37t116.5 103h60q-45 -83 -130 -134q-91 -55 -198 -55q-160 0 -270.5 112.5t-110.5 273.5q0 155 111 267t275 112q130 0 231 -84q111 -92 111 -234zM502 464 q0 27 -16 47q-20 25 -56 25q-73 0 -126 -86q-47 -77 -47 -154q0 -35 18 -63q22 -34 60 -34q32 0 62.5 24.5t51.5 66.5q53 106 53 174z" />
<glyph unicode="A" horiz-adv-x="556" d="M546 0h-92l-59 216h-237l-55 -216h-92l214 750h110zM376 291l-97 399l-101 -399h198z" />
<glyph unicode="B" horiz-adv-x="556" d="M503 219q0 -105 -54 -162t-151 -57h-218v750h227q178 0 178 -198q0 -65 -26.5 -98.5t-85.5 -54.5q63 -9 96.5 -52t33.5 -128zM396 555q0 72 -31.5 96t-115.5 24h-86v-246h112q63 0 92 29t29 97zM417 218q0 89 -48 118q-30 18 -105 18h-101v-279h131q66 0 94.5 31.5 t28.5 111.5z" />
<glyph unicode="C" horiz-adv-x="556" d="M503 271l-9 -99q-7 -73 -55 -127q-56 -63 -146 -63q-102 0 -158 56q-49 49 -68 144q-14 70 -14 189q0 106 12 173q18 101 64 154q58 67 161 67q104 0 162 -70q51 -62 51 -155v-15h-83q0 88 -39 129q-34 36 -98 36q-33 0 -61.5 -17.5t-46.5 -53.5q-23 -46 -30 -110.5 t-7 -185.5q0 -266 149 -266q72 0 105 60q28 52 28 154h83z" />
<glyph unicode="D" horiz-adv-x="611" d="M549 410q0 -256 -90 -350q-58 -60 -170 -60h-207v750h202q128 0 191 -69q74 -81 74 -271zM463 347q0 109 -14 182.5t-49 108.5q-20 20 -46.5 28.5t-58.5 8.5h-130v-600h126q38 0 63.5 7.5t46.5 28.5q32 32 47 88t15 148z" />
<glyph unicode="E" d="M451 0h-377v750h375v-75h-292v-248h274v-75h-274v-277h294v-75z" />
<glyph unicode="F" horiz-adv-x="444" d="M426 675h-269v-246h250v-75h-250v-354h-83v750h352v-75z" />
<glyph unicode="G" horiz-adv-x="611" d="M532 -6h-64v117q-17 -60 -62 -94.5t-111 -34.5q-102 0 -160 62q-48 52 -67 151q-14 74 -14 189q0 187 55 279q61 102 195 102q90 0 147 -47q74 -61 74 -186h-84q0 73 -32 113q-36 45 -105 45q-105 0 -141 -104q-23 -66 -23 -214q0 -94 6 -142q10 -81 39 -122 q36 -51 105 -51q76 0 114 46q45 55 45 207h-167v75h250v-391z" />
<glyph unicode="H" horiz-adv-x="611" d="M532 0h-83v362h-287v-362h-83v750h83v-313h287v313h83v-750z" />
<glyph unicode="I" horiz-adv-x="278" d="M181 0h-83v750h83v-750z" />
<glyph unicode="J" horiz-adv-x="444" d="M368 188q0 -112 -43.5 -157.5t-135.5 -45.5q-103 0 -142 73q-26 49 -26 145l1 32h83v-47q0 -67 17.5 -97.5t69.5 -30.5q51 0 72 31t21 96v563h83v-562z" />
<glyph unicode="K" horiz-adv-x="556" d="M546 0h-102l-203 362l-78 -102v-260h-84v750h83v-385l273 385h104l-239 -314z" />
<glyph unicode="L" d="M472 0h-389v750h83v-675h306v-75z" />
<glyph unicode="M" horiz-adv-x="778" d="M702 0h-83v631v82l-23 -93l-159 -620h-99l-161 637l-18 76v-108v-605h-83v750h147l149 -593q7 -29 10.5 -51t3.5 -52q7 41 11 66t9 42l150 588h146v-750z" />
<glyph unicode="N" horiz-adv-x="611" d="M534 0h-136l-210 600q-10 29 -17.5 59.5t-10.5 53.5v-103v-610h-83v750h135l202 -582q14 -39 23.5 -69.5t13.5 -44.5v74v622h83v-750z" />
<glyph unicode="O" horiz-adv-x="611" d="M553 390q0 -199 -47 -293q-58 -115 -200 -115q-141 0 -199 115q-48 96 -48 294q0 217 73 303q60 71 176 71q109 0 169 -67q48 -53 65 -150q11 -61 11 -158zM467 404q0 136 -35 206q-40 80 -127 80q-73 0 -112 -57q-48 -70 -48 -235q0 -185 29 -256q35 -85 132 -85 q101 0 135 94q26 72 26 253z" />
<glyph unicode="P" horiz-adv-x="556" d="M519 543q0 -57 -14 -98.5t-41 -68.5q-36 -36 -85 -47t-154 -11h-56v-318h-83v750h197q61 0 104.5 -11t76.5 -44q26 -26 40.5 -66t14.5 -86zM433 537q0 78 -38.5 108t-125.5 30h-100v-282h79q104 0 144.5 30t40.5 114z" />
<glyph unicode="Q" horiz-adv-x="611" d="M582 18l-42 -52l-84 70q-24 -24 -65 -39t-86 -15q-143 0 -200 118q-46 95 -46 298q0 163 42 248q59 119 203 119q107 0 168 -63q49 -50 68 -145q14 -68 14 -165q0 -81 -11 -156q-15 -104 -47 -146zM468 348q0 185 -30 257q-35 85 -132 85q-96 0 -131 -82 q-30 -70 -30 -253q0 -163 43 -235q38 -63 114 -63q29 0 49 5.5t43 22.5l-74 59l44 55l70 -56q14 27 24 92t10 113z" />
<glyph unicode="R" horiz-adv-x="611" d="M565 0h-97q-10 27 -18 80.5t-8 113.5q0 52 -20 85q-31 51 -106 51h-147v-330h-83v750h191q131 0 190 -43q64 -47 64 -157q0 -73 -36 -119.5t-108 -57.5q53 -7 76.5 -20.5t39.5 -45.5q10 -20 15.5 -55t5.5 -79q0 -43 6 -83t16 -59q6 -13 19 -14v-17zM445 537q0 80 -47 113 q-36 25 -107 25h-122v-270h130q64 0 101 28q45 34 45 104z" />
<glyph unicode="S" horiz-adv-x="556" d="M505 208q0 -103 -60.5 -164.5t-173.5 -61.5q-56 0 -95 14.5t-68 43.5q-34 34 -45.5 75.5t-11.5 122.5h83v-32q0 -74 29 -109q33 -40 113 -40q67 0 105 34t38 96q0 58 -15.5 85t-57.5 42l-139 51q-81 30 -111 67q-35 44 -35 130q0 87 55 143q59 60 156 60q96 0 153.5 -48 t57.5 -139v-25h-83l1 15q0 54 -32 88t-85 34q-69 0 -103 -31t-34 -102q0 -43 19 -68q16 -21 55 -36l126 -48q92 -35 125 -76.5t33 -120.5z" />
<glyph unicode="T" d="M486 675h-194v-675h-83v675h-194v75h471v-75z" />
<glyph unicode="U" horiz-adv-x="611" d="M531 183q0 -107 -69 -158q-58 -43 -155 -43q-111 0 -168.5 52.5t-57.5 146.5v569h83v-547q0 -70 30 -105q35 -41 112 -41q142 0 142 147v546h83v-567z" />
<glyph unicode="V" horiz-adv-x="556" d="M545 750l-216 -750h-103l-215 750h92l173 -690l177 690h92z" />
<glyph unicode="W" horiz-adv-x="833" d="M816 750l-176 -750h-103l-103 524q-5 23 -12 82t-7 84q-2 -33 -9 -82.5t-15 -88.5l-111 -519h-103l-160 750h92l101 -533q4 -22 8.5 -57t10.5 -100q2 10 10 70.5t14 87.5l112 532h103l99 -517q6 -28 14 -88.5t8 -84.5q7 47 12.5 88.5t15.5 88.5l107 513h92z" />
<glyph unicode="X" horiz-adv-x="556" d="M539 0h-102l-159 314l-162 -314h-99l213 385l-207 365h98l157 -293l157 293h98l-206 -365z" />
<glyph unicode="Y" horiz-adv-x="556" d="M546 750l-227 -459v-291h-83v291l-225 459h92l175 -376l176 376h92z" />
<glyph unicode="Z" d="M473 0h-445v72l354 603h-345v75h431v-72l-354 -603h359v-75z" />
<glyph unicode="[" horiz-adv-x="333" d="M275 -209h-175v959h175v-60h-97v-837h97v-62z" />
<glyph unicode="\" horiz-adv-x="250" d="M281 0h-58l-254 750h58z" />
<glyph unicode="]" horiz-adv-x="333" d="M233 -209h-175v62h97v837h-97v60h175v-959z" />
<glyph unicode="^" d="M431 333h-54l-128 338l-126 -338h-53l155 417h49z" />
<glyph unicode="_" d="M500 -119h-500v58h500v-58z" />
<glyph unicode="`" horiz-adv-x="333" d="M233 624h-67l-131 141h109z" />
<glyph unicode="a" horiz-adv-x="444" d="M417 0q-9 -2 -16.5 -3.5t-19.5 -1.5q-42 0 -59.5 15t-22.5 65q-18 -41 -52.5 -65.5t-75.5 -24.5q-71 0 -105.5 39t-34.5 123q0 68 38 107q19 19 58 36l119 48q32 13 39.5 24t7.5 45q0 52 -15 72q-19 25 -72 25q-47 0 -64.5 -18.5t-17.5 -68.5v-11h-71v13q0 152 162 152 q81 0 121 -42q33 -35 33 -95v-340q0 -16 3.5 -26.5t25.5 -10.5l19 1v-58zM287 165v135q-5 -3 -26 -14q-14 -7 -35 -17l-60 -27q-53 -24 -53 -100q0 -90 75 -90q41 0 70 29.5t29 83.5z" />
<glyph unicode="b" d="M447 313q0 -151 -31 -228q-40 -100 -138 -100q-44 0 -75 18.5t-54 62.5l-2 -65h-72v749h79v-251q26 39 54 55.5t64 16.5q85 0 130 -69t45 -189zM365 292q0 99 -21 150q-26 62 -85 62q-65 0 -91 -66q-19 -49 -19 -139v-49q0 -93 18 -136q26 -62 95 -62q60 0 84 69 q19 54 19 171z" />
<glyph unicode="c" horiz-adv-x="444" d="M405 194q0 -85 -33 -139q-43 -70 -135 -70q-120 0 -164 98q-29 64 -29 189q0 170 56 240q47 59 135 59q81 0 125 -55q41 -51 41 -135h-74q0 123 -92 123q-70 0 -94 -84q-15 -52 -15 -152q0 -93 14 -138q24 -78 92 -78q50 0 74 33t24 109h75z" />
<glyph unicode="d" d="M424 0h-76v73q-27 -48 -56 -68t-82 -20q-31 0 -55 10t-42 28q-41 41 -56 125q-9 50 -9 129v28q0 125 44.5 195.5t121.5 70.5q35 0 61 -12q36 -17 68 -60l2 251h79v-750zM345 220v76q0 109 -26.5 158.5t-84.5 49.5q-64 0 -89 -77q-17 -53 -17 -154q0 -109 17 -155 q25 -66 94 -66q52 0 81 53q25 46 25 115z" />
<glyph unicode="e" horiz-adv-x="444" d="M395 271h-270q0 -31 1 -71.5t11 -76.5q19 -71 87 -71q47 0 70 30.5t23 78.5v24h74v-16q0 -78 -40 -128q-45 -56 -126 -56q-92 0 -137 70.5t-45 223.5q0 124 38 200q46 92 140 92q93 0 134 -60q38 -56 38 -172zM313 336l-2 43q0 58 -19 89q-22 36 -70 36q-59 0 -81 -54 q-16 -39 -16 -114h188z" />
<glyph unicode="f" horiz-adv-x="278" d="M259 489h-87v-489h-79v489h-81v67h80v59q0 69 21 98q28 39 106 39l40 -2v-67l-29 2q-35 0 -46.5 -16t-11.5 -57v-56h87v-67z" />
<glyph unicode="g" d="M426 43q0 -52 -16.5 -102t-48.5 -82q-22 -22 -54 -35t-75 -13q-151 0 -167 136h77q4 -33 24 -51t59 -18q70 0 98 45q22 36 22 113v29q-26 -40 -50 -58q-30 -22 -72 -22q-94 0 -138 79q-40 72 -40 213q0 143 45.5 218.5t131.5 75.5q39 0 70.5 -19t52.5 -59l2 63h79v-513z M347 278q0 125 -29.5 175.5t-82.5 50.5q-64 0 -90 -77q-18 -54 -18 -144q0 -122 24.5 -176.5t77.5 -54.5q74 0 101 79q17 50 17 147z" />
<glyph unicode="h" d="M428 0h-79v408q0 41 -14 64q-20 32 -68 32q-29 0 -47.5 -9t-35.5 -26q-21 -21 -26.5 -43t-5.5 -67v-359h-79v750h79v-255q32 40 63.5 58t78.5 18q65 0 99.5 -37.5t34.5 -103.5v-430z" />
<glyph unicode="i" horiz-adv-x="222" d="M151 650h-79v100h79v-100zM151 0h-79v556h79v-556z" />
<glyph unicode="j" horiz-adv-x="222" d="M154 650h-79v100h79v-100zM154 -21q0 -97 -29 -133t-112 -36v73h13q12 0 21 2t16.5 9.5t9.5 24t2 52.5v585h79v-577z" />
<glyph unicode="k" horiz-adv-x="444" d="M439 0h-92l-139 277l-60 -79v-198h-79v750h79v-453l192 259h94l-172 -216z" />
<glyph unicode="l" horiz-adv-x="222" d="M151 0h-79v750h79v-750z" />
<glyph unicode="m" horiz-adv-x="778" d="M703 0h-79v408q0 48 -16 70q-19 26 -66 26q-19 0 -40.5 -8t-40.5 -27q-32 -32 -32 -94v-375h-79v405q0 48 -16 71q-20 28 -65 28q-30 0 -51 -10q-15 -7 -36 -28q-27 -27 -27 -79v-387h-79v556h76v-71q24 38 54 60q36 26 81 26q43 0 77 -23t54 -65q29 44 64 66t83 22 q32 0 60 -11.5t46.5 -30t25 -48.5t6.5 -67v-414z" />
<glyph unicode="n" d="M428 0h-79v408q0 54 -24 77q-20 19 -58 19q-48 0 -83 -35q-17 -17 -24.5 -39t-7.5 -56v-374h-79v556h77v-61q31 36 58 53q37 23 82 23q73 0 109 -44q29 -36 29 -94v-433z" />
<glyph unicode="o" d="M449 295q0 -144 -38 -218q-47 -92 -158 -92q-93 0 -141 58q-61 74 -61 252q0 128 45 198q50 78 155 78q91 0 142 -64q56 -71 56 -212zM367 267q0 127 -26.5 182t-91.5 55q-68 0 -95 -69q-21 -54 -21 -164q0 -111 27 -165t90 -54t90 52.5t27 162.5z" />
<glyph unicode="p" d="M447 321q0 -160 -37 -241q-43 -95 -141 -95q-39 0 -65.5 16.5t-52.5 56.5v-246h-79v744h76v-62q20 41 62 62q30 15 57 15q92 0 140 -82q40 -68 40 -168zM365 289q0 99 -23 152q-27 63 -86 63q-62 0 -87 -72q-18 -52 -18 -153q0 -110 17 -158q24 -69 92 -69q57 0 81 61 t24 176z" />
<glyph unicode="q" d="M426 -184h-79v245q-29 -39 -55.5 -57.5t-63.5 -18.5q-47 0 -79.5 19t-54 62t-31 115.5t-9.5 118.5q0 109 38 183q45 88 128 88q86 0 128 -73l2 58h76v-740zM347 283q0 100 -14 145q-23 76 -90 76q-61 0 -87 -69q-20 -53 -20 -148q0 -109 18 -162q25 -73 87 -73 q82 0 100 117q6 40 6 114z" />
<glyph unicode="r" horiz-adv-x="333" d="M322 484l-32 3q-65 0 -100 -46q-30 -40 -30 -100v-341h-79v556h76v-91q24 51 58.5 74.5t83.5 23.5l23 -1v-78z" />
<glyph unicode="s" horiz-adv-x="444" d="M400 149q0 -58 -35 -102q-49 -62 -152 -62q-90 0 -135 52q-35 41 -35 102v23h75q0 -50 12 -72q21 -38 83 -38q54 0 79.5 23.5t25.5 69.5q0 49 -43 74q-7 4 -85.5 33.5t-106.5 56.5q-38 36 -38 104q0 74 46 116t117 42q98 0 140 -52q32 -40 32 -112h-77v16q0 45 -23.5 63 t-64.5 18q-45 0 -66.5 -22.5t-21.5 -63.5q0 -43 35 -67q13 -9 80 -36q93 -38 122 -65q36 -34 36 -101z" />
<glyph unicode="t" horiz-adv-x="278" d="M257 489h-92v-385q0 -21 5.5 -29t32.5 -8h52v-67h-94q-39 0 -55 17q-20 21 -20 76v396h-77v67h77v151h78v-151h93v-67z" />
<glyph unicode="u" d="M424 0h-79v73q-20 -38 -55 -63t-79 -25q-79 0 -112 52q-22 35 -22 92v427h79v-430q0 -41 15 -57.5t59 -16.5q46 0 80.5 34.5t34.5 111.5v358h79v-556z" />
<glyph unicode="v" horiz-adv-x="444" d="M431 556l-167 -556h-86l-165 556h82l126 -489l128 489h82z" />
<glyph unicode="w" horiz-adv-x="667" d="M649 556l-139 -556h-82l-94 489l-90 -489h-82l-143 556h82l101 -489l90 489h82l94 -489l99 489h82z" />
<glyph unicode="x" horiz-adv-x="444" d="M436 0h-82l-130 222l-133 -222h-82l170 286l-160 270h82l124 -200l123 200h82l-160 -270z" />
<glyph unicode="y" horiz-adv-x="444" d="M425 556l-179 -576q-28 -89 -54 -122q-38 -48 -110 -48q-24 0 -57 9v70q26 -12 59 -12q31 0 50 14.5t30 44.5l18 51l-177 569h82l125 -482l131 482h82z" />
<glyph unicode="z" horiz-adv-x="389" d="M366 0h-342v62l258 429h-247v65h329v-65l-258 -426h260v-65z" />
<glyph unicode="{" horiz-adv-x="274" d="M241 -95q-85 0 -118 40q-26 32 -26 105v186q0 17 -4.5 31.5t-13.5 23.5q-13 13 -33 23.5t-39 13.5q46 9 70 34q10 10 15 24.5t5 32.5v208q0 57 27 85q36 38 124 38h18q-48 -16 -67 -36q-22 -24 -22 -74v-194q0 -45 -17 -71q-23 -35 -83 -45q57 -15 78.5 -45.5t21.5 -90.5 v-177q0 -48 23 -74q19 -21 66 -36z" />
<glyph unicode="|" horiz-adv-x="250" d="M157 0h-64v750h64v-750z" />
<glyph unicode="}" horiz-adv-x="274" d="M197 293q-10 -10 -15 -24.5t-5 -32.5v-208q0 -57 -27 -85q-36 -38 -124 -38h-18q48 16 68.5 38t20.5 72v194q0 45 17 71q23 35 83 45q-57 15 -78.5 45.5t-21.5 90.5v177q0 48 -23 74q-19 21 -66 36l25 2q85 0 118 -40q26 -32 26 -105v-186q0 -17 4.5 -31.5t13.5 -23.5 q13 -13 33 -23.5t39 -13.5q-46 -9 -70 -34z" />
<glyph unicode="~" d="M457 298q-49 -111 -113 -111q-28 0 -70 21q-97 48 -113 48q-45 0 -83 -90l-34 48q25 57 48 83q30 35 69 35q31 0 96 -35t85 -35t38 17q23 21 43 66z" />
<glyph unicode="&#xa0;" />
<glyph unicode="&#xa1;" horiz-adv-x="333" d="M212 471h-91v100h91v-100zM212 -179h-91v230l23 337h45l23 -337v-230z" />
<glyph unicode="&#xa2;" d="M418 190v-18q-4 -21 -5 -32q-11 -74 -47 -110q-45 -45 -118 -45q-12 0 -25.5 2t-22.5 4l-29 -128h-48l32 143q-23 13 -36 26t-24 35q-18 36 -27.5 84.5t-9.5 115.5q0 94 19 157q26 85 84 114q17 8 39 13t50 5l27 -3l26 114h50l-29 -127q51 -24 72 -71q14 -32 20 -97h-78 q0 43 -11 69q-7 17 -19 28l-93 -413q2 -1 9.5 -2.5t22.5 -1.5q32 0 49.5 11t30.5 37q8 15 12.5 38.5t4.5 51.5h74zM263 489l-19 2q-51 0 -74 -45q-17 -33 -23.5 -86t-6.5 -115q0 -57 6 -92t27 -66z" />
<glyph unicode="&#xa3;" d="M485 30q-30 -22 -54.5 -31t-65.5 -9q-25 0 -60 11q-81 25 -117 25q-32 0 -63 -12q-22 -9 -54 -29l-41 61q59 49 86 91q31 49 31 109q0 21 -6 45t-16 47h-95v44h75q-26 47 -39.5 87.5t-13.5 80.5q0 62 27.5 108t77.5 71q42 21 111 21q95 0 147.5 -56.5t52.5 -156.5l-1 -15 h-83v26q0 64 -34.5 95.5t-90.5 31.5q-57 0 -89 -35t-32 -99q0 -34 12.5 -72t39.5 -87h164v-44h-145q18 -32 18 -75q0 -55 -31.5 -106.5t-82.5 -92.5l2 -2q46 30 108 30q19 0 29 -1.5t29 -7.5q35 -10 55.5 -14.5t34.5 -4.5q20 0 39.5 7t46.5 26z" />
<glyph unicode="&#xa4;" d="M475 296q0 -33 -7 -61q-10 -41 -35 -83l38 -42l-47 -53l-40 43q-33 -26 -68 -38t-70 -12q-67 0 -132 50l-39 -43l-47 53l39 42q-22 37 -32.5 73t-10.5 75q0 41 6 67q10 42 37 84l-39 43l47 53l39 -43q29 24 64 36.5t78 12.5q65 0 128 -49l40 43l47 -53l-38 -43 q20 -36 31 -72t11 -83zM403 303q0 71 -39 122q-42 56 -110 56q-75 0 -116.5 -51.5t-41.5 -129.5q0 -75 43.5 -126.5t108.5 -51.5q66 0 110.5 51.5t44.5 129.5z" />
<glyph unicode="&#xa5;" d="M518 750l-231 -459v-29h138v-44h-138v-76h138v-44h-138v-98h-82v98h-138v44h138v76h-138v44h138v29l-222 459h100l167 -376l174 376h94z" />
<glyph unicode="&#xa6;" horiz-adv-x="250" d="M157 450h-64v300h64v-300zM157 0h-64v300h64v-300z" />
<glyph unicode="&#xa7;" d="M466 254q0 -47 -26.5 -87t-80.5 -77q39 -31 55.5 -58.5t16.5 -72.5q0 -78 -49.5 -122.5t-140.5 -44.5q-85 0 -131.5 49.5t-46.5 126.5v11h81q0 -56 26 -88t81 -32q45 0 72.5 23.5t27.5 64.5q0 35 -18 58q-25 32 -109 87l-75 49q-66 44 -92 82q-22 33 -22 78 q0 103 113 157q-34 23 -52 55.5t-18 76.5q0 73 50 116.5t128 43.5t123 -46t45 -130h-82q0 54 -25.5 80.5t-69.5 26.5q-31 0 -50.5 -12t-31.5 -35q-5 -11 -6.5 -21t-1.5 -29q0 -26 24.5 -49.5t116.5 -84.5q102 -68 114 -79q54 -50 54 -117zM386 242q0 29 -19 52 q-11 14 -52 46q-25 20 -73 52q-3 2 -47 31q-51 -34 -68 -62q-12 -20 -12 -50q0 -25 14.5 -44.5t62.5 -54.5q60 -42 120 -83q47 39 58 56q16 25 16 57z" />
<glyph unicode="&#xa8;" horiz-adv-x="333" d="M281 650h-79v100h79v-100zM131 650h-79v100h79v-100z" />
<glyph unicode="&#xa9;" horiz-adv-x="800" d="M792 374q0 -162 -114 -277t-278 -115q-162 0 -277 114t-115 277q0 164 115 278t278 114q162 0 276.5 -114.5t114.5 -276.5zM733 373q0 139 -96.5 236.5t-236.5 97.5q-138 0 -235.5 -97.5t-97.5 -236.5q0 -138 97.5 -235.5t235.5 -97.5q140 0 236.5 96.5t96.5 236.5z M600 303q-5 -63 -57 -108t-124 -45q-99 0 -159 65t-60 164q0 98 58 161t158 63q67 0 116 -35q55 -40 68 -114h-58q-9 49 -47 77q-33 24 -76 24q-77 0 -118.5 -50t-41.5 -125q0 -78 43.5 -130t114.5 -52q49 0 84 28t41 77h58z" />
<glyph unicode="&#xaa;" horiz-adv-x="300" d="M276 422l-28 -2q-27 0 -36.5 9.5t-12.5 37.5q-12 -24 -34.5 -39t-48.5 -15q-50 0 -70.5 25.5t-20.5 69.5q0 31 13 53t48 35l84 31q16 6 20.5 11.5t4.5 17.5v18q0 50 -55 50q-34 0 -44.5 -11.5t-10.5 -46.5h-46v8q0 42 22 64q27 27 84 27q50 0 75 -22.5t25 -60.5v-206 q0 -13 6 -17q4 -3 15 -3l10 1v-35zM276 305h-251v40h251v-40zM191 520v82q-11 -6 -34 -16q-46 -19 -49 -21q-16 -8 -22.5 -23t-6.5 -36q0 -53 48 -53q29 0 46.5 19.5t17.5 47.5z" />
<glyph unicode="&#xab;" d="M415 125l-151 156v61l151 153v-83l-100 -102l100 -102v-83zM236 125l-151 156v61l151 153v-83l-100 -102l100 -102v-83z" />
<glyph unicode="&#xac;" d="M457 117h-70v197h-343v70h413v-267z" />
<glyph unicode="&#xad;" d="M457 219h-413v70h413v-70z" />
<glyph unicode="&#xae;" horiz-adv-x="800" d="M792 374q0 -162 -114 -277t-278 -115q-162 0 -277 114t-115 277q0 164 115 278t278 114q162 0 276.5 -114.5t114.5 -276.5zM733 373q0 139 -96.5 236.5t-236.5 97.5q-138 0 -235.5 -97.5t-97.5 -236.5q0 -138 97.5 -235.5t235.5 -97.5q140 0 236.5 96.5t96.5 236.5z M603 475q0 -51 -31 -82q-36 -36 -107 -36l131 -202h-65l-124 202h-97v-202h-56v440h204q27 0 43.5 -2.5t34.5 -11.5q32 -16 49.5 -42t17.5 -64zM547 481q0 42 -34 59q-26 13 -76 13h-127v-154h125q52 0 78 15q34 20 34 67z" />
<glyph unicode="&#xaf;" horiz-adv-x="333" d="M323 657h-313v58h313v-58z" />
<glyph unicode="&#xb0;" horiz-adv-x="400" d="M350 599q0 -59 -42 -104t-108 -45q-65 0 -107.5 44.5t-42.5 106.5q0 61 44 105t106 44q63 0 106.5 -44.5t43.5 -106.5zM288 600q0 35 -25.5 61.5t-63.5 26.5q-37 0 -62 -26t-25 -62q0 -37 25.5 -62.5t63.5 -25.5q35 0 61 25t26 63z" />
<glyph unicode="&#xb1;" d="M457 279h-172v-159h-70v159h-171v70h171v156h70v-156h172v-70zM457 0h-413v70h413v-70z" />
<glyph unicode="&#xb2;" horiz-adv-x="300" d="M281 300h-262q0 56 23 104q16 33 37 52l85 75q26 23 36.5 45t10.5 50q0 38 -15 55t-49 17q-33 0 -47.5 -22t-14.5 -66v-13h-62v25q0 64 35 96t95 32q56 0 89.5 -31.5t33.5 -93.5q0 -43 -16.5 -73t-60.5 -67l-77 -65q-26 -22 -34 -35.5t-8 -32.5h201v-52z" />
<glyph unicode="&#xb3;" horiz-adv-x="300" d="M283 430q0 -67 -34.5 -103t-102.5 -36q-129 0 -129 133v8h59l-1 -14q0 -33 18.5 -54.5t56.5 -21.5q32 0 51 19t19 58q0 54 -22.5 69.5t-82.5 15.5v56h28q34 0 48.5 14.5t14.5 55.5q0 38 -14 53t-46 15q-39 0 -53 -27q-9 -17 -9 -54h-58v10q0 51 27 84q32 39 95 39 q55 0 88.5 -29.5t33.5 -83.5q0 -79 -68 -100q42 -9 61.5 -37t19.5 -70z" />
<glyph unicode="&#xb4;" horiz-adv-x="333" d="M298 765l-131 -141h-67l89 141h109z" />
<glyph unicode="&#xb5;" d="M422 0h-79v73q-19 -39 -55 -63.5t-77 -24.5q-16 0 -34 8t-23 10v-192h-79v745h79v-434q0 -39 16.5 -54.5t55.5 -15.5q21 0 42 7.5t37 23.5q21 21 29.5 50t8.5 65v358h79v-556z" />
<glyph unicode="&#xb6;" horiz-adv-x="440" d="M391 -116h-79v799h-76v-799h-79v482q-66 0 -111.5 57t-45.5 133q0 60 26 108.5t69 70.5q30 15 101 15h195v-866z" />
<glyph unicode="&#xb7;" horiz-adv-x="250" d="M171 204h-91v100h91v-100z" />
<glyph unicode="&#xb8;" horiz-adv-x="333" d="M281 -132q0 -46 -37 -71q-32 -21 -84 -21q-27 0 -59 9q-15 4 -35 12l17 40q16 -6 33.5 -10.5t34.5 -4.5q25 0 40 12.5t15 25.5q0 18 -13.5 30.5t-35.5 12.5q-9 0 -14 -1q-1 0 -25 -7l-17 19l63 86h48l-46 -62q9 3 24 3q42 0 66.5 -19.5t24.5 -53.5z" />
<glyph unicode="&#xb9;" horiz-adv-x="300" d="M233 300h-62v324h-104v43q57 0 83.5 17t32.5 66h50v-450z" />
<glyph unicode="&#xba;" horiz-adv-x="300" d="M279 598q0 -95 -31.5 -140t-92.5 -45q-81 0 -112 61q-23 47 -23 122q0 66 21 108q14 28 42.5 44.5t66.5 16.5q36 0 65.5 -16.5t44.5 -46.5q19 -38 19 -104zM279 305h-259v40h259v-40zM225 582q0 74 -13 104q-17 39 -62 39q-42 0 -59 -33t-17 -109q0 -65 18 -97.5 t58 -32.5q41 0 58 31.5t17 97.5z" />
<glyph unicode="&#xbb;" d="M415 278l-151 -153v83l100 102l-100 102v83l151 -156v-61zM236 278l-151 -153v83l100 102l-100 102v83l151 -156v-61z" />
<glyph unicode="&#xbc;" horiz-adv-x="750" d="M716 107h-38v-107h-60v107h-177v54l179 289h58v-293h38v-50zM658 750l-452 -750h-63l452 750h63zM200 300h-62v324h-104v43q57 0 83.5 17t32.5 66h50v-450zM618 157v215l-135 -215h135z" />
<glyph unicode="&#xbd;" horiz-adv-x="750" d="M709 0h-262q0 56 23 104q16 33 37 52l85 75q26 23 36.5 45t10.5 50q0 38 -15 55t-49 17q-33 0 -47.5 -22t-14.5 -66v-13h-62v25q0 64 35 96t95 32q56 0 89.5 -31.5t33.5 -93.5q0 -43 -16.5 -73t-60.5 -67l-77 -65q-26 -22 -34 -35.5t-8 -32.5h201v-52zM606 750l-452 -750 h-63l452 750h63zM208 300h-62v324h-104v43q57 0 83.5 17t32.5 66h50v-450z" />
<glyph unicode="&#xbe;" horiz-adv-x="750" d="M730 107h-38v-107h-60v107h-177v54l179 289h58v-293h38v-50zM672 750l-452 -750h-63l452 750h63zM287 430q0 -67 -34.5 -103t-102.5 -36q-129 0 -129 133v8h59l-1 -14q0 -33 18.5 -54.5t56.5 -21.5q32 0 51 19t19 58q0 54 -22.5 69.5t-82.5 15.5v56h28q34 0 48.5 14.5 t14.5 55.5q0 38 -14 53t-46 15q-39 0 -53 -27q-9 -17 -9 -54h-58v10q0 51 27 84q32 39 95 39q55 0 88.5 -29.5t33.5 -83.5q0 -79 -68 -100q42 -9 61.5 -37t19.5 -70zM632 157v215l-135 -215h135z" />
<glyph unicode="&#xbf;" d="M302 459h-91v100h91v-100zM440 26q0 -89 -44 -147q-53 -69 -154 -69q-94 0 -149 52t-55 137q0 66 29 117q12 20 63.5 82.5t58.5 73.5q24 36 24 69v46h89q0 -49 -3.5 -75t-15 -49t-34.5 -51q-13 -16 -40 -45q-38 -41 -56 -73q-24 -43 -24 -88q0 -54 25.5 -90t74.5 -36 q69 0 99 46q25 39 25 120h87v-20z" />
<glyph unicode="&#xc0;" horiz-adv-x="556" d="M546 0h-92l-59 216h-237l-55 -216h-92l214 750h110zM376 291l-97 399l-101 -399h198zM345 818h-67l-131 141h109z" />
<glyph unicode="&#xc1;" horiz-adv-x="556" d="M546 0h-92l-59 216h-237l-55 -216h-92l214 750h110zM376 291l-97 399l-101 -399h198zM410 959l-131 -141h-67l89 141h109z" />
<glyph unicode="&#xc2;" horiz-adv-x="556" d="M546 0h-92l-59 216h-237l-55 -216h-92l214 750h110zM376 291l-97 399l-101 -399h198zM425 818h-80l-66 94l-66 -94h-80l99 141h93z" />
<glyph unicode="&#xc3;" horiz-adv-x="556" d="M546 0h-92l-59 216h-237l-55 -216h-92l214 750h110zM376 291l-97 399l-101 -399h198zM449 943q0 -43 -26 -74q-29 -35 -74 -35q-24 0 -93 25q-36 13 -51 13q-18 0 -31 -12t-17 -33h-48q5 50 32 79.5t68 29.5q23 0 93 -25q36 -13 53 -13q16 0 30 14t16 31h48z" />
<glyph unicode="&#xc4;" horiz-adv-x="556" d="M546 0h-92l-59 216h-237l-55 -216h-92l214 750h110zM376 291l-97 399l-101 -399h198zM393 844h-79v100h79v-100zM243 844h-79v100h79v-100z" />
<glyph unicode="&#xc5;" horiz-adv-x="556" d="M546 0h-92l-59 216h-237l-55 -216h-92l214 750h110zM376 291l-97 399l-101 -399h198zM380 889q0 -42 -30 -72t-71 -30q-43 0 -73 30t-30 72q0 41 31 71t71 30q42 0 72 -29t30 -72zM340 889q0 24 -18.5 42.5t-43.5 18.5q-24 0 -43 -19t-19 -42q0 -25 18.5 -43.5 t44.5 -18.5q23 0 42 19t19 43z" />
<glyph unicode="&#xc6;" horiz-adv-x="833" d="M785 675h-276v-248h257v-75h-257v-277h273v-75h-355v215h-233l-100 -215h-94l366 750h419v-75zM426 290v385h-14l-183 -385h197z" />
<glyph unicode="&#xc7;" horiz-adv-x="556" d="M503 271l-9 -99q-7 -73 -55 -127q-56 -63 -146 -63q-102 0 -158 56q-49 49 -68 144q-14 70 -14 189q0 106 12 173q18 101 64 154q58 67 161 67q104 0 162 -70q51 -62 51 -155v-15h-83q0 88 -39 129q-34 36 -98 36q-33 0 -61.5 -17.5t-46.5 -53.5q-23 -46 -30 -110.5 t-7 -185.5q0 -266 149 -266q72 0 105 60q28 52 28 154h83zM393 -132q0 -46 -37 -71q-32 -21 -84 -21q-27 0 -59 9q-15 4 -35 12l17 40q16 -6 33.5 -10.5t34.5 -4.5q25 0 40 12.5t15 25.5q0 18 -13.5 30.5t-35.5 12.5q-9 0 -14 -1q-1 0 -25 -7l-17 19l63 86h48l-46 -62 q9 3 24 3q42 0 66.5 -19.5t24.5 -53.5z" />
<glyph unicode="&#xc8;" d="M451 0h-377v750h375v-75h-292v-248h274v-75h-274v-277h294v-75zM317 818h-67l-131 141h109z" />
<glyph unicode="&#xc9;" d="M451 0h-377v750h375v-75h-292v-248h274v-75h-274v-277h294v-75zM382 959l-131 -141h-67l89 141h109z" />
<glyph unicode="&#xca;" d="M451 0h-377v750h375v-75h-292v-248h274v-75h-274v-277h294v-75zM397 818h-80l-66 94l-66 -94h-80l99 141h93z" />
<glyph unicode="&#xcb;" d="M451 0h-377v750h375v-75h-292v-248h274v-75h-274v-277h294v-75zM365 844h-79v100h79v-100zM215 844h-79v100h79v-100z" />
<glyph unicode="&#xcc;" horiz-adv-x="278" d="M181 0h-83v750h83v-750zM206 818h-67l-131 141h109z" />
<glyph unicode="&#xcd;" horiz-adv-x="278" d="M181 0h-83v750h83v-750zM271 959l-131 -141h-67l89 141h109z" />
<glyph unicode="&#xce;" horiz-adv-x="278" d="M181 0h-83v750h83v-750zM286 818h-80l-66 94l-66 -94h-80l99 141h93z" />
<glyph unicode="&#xcf;" horiz-adv-x="278" d="M181 0h-83v750h83v-750zM254 844h-79v100h79v-100zM104 844h-79v100h79v-100z" />
<glyph unicode="&#xd0;" horiz-adv-x="611" d="M549 410q0 -256 -90 -350q-58 -60 -170 -60h-207v344h-88v79h88v327h202q128 0 191 -69q74 -81 74 -271zM463 347q0 109 -14 182.5t-49 108.5q-20 20 -46.5 28.5t-58.5 8.5h-130v-252h105v-79h-105v-269h126q38 0 63.5 7.5t46.5 28.5q32 32 47 88t15 148z" />
<glyph unicode="&#xd1;" horiz-adv-x="611" d="M534 0h-136l-210 600q-10 29 -17.5 59.5t-10.5 53.5v-103v-610h-83v750h135l202 -582q14 -39 23.5 -69.5t13.5 -44.5v74v622h83v-750zM476 943q0 -43 -26 -74q-29 -35 -74 -35q-24 0 -93 25q-36 13 -51 13q-18 0 -31 -12t-17 -33h-48q5 50 32 79.5t68 29.5q23 0 93 -25 q36 -13 53 -13q16 0 30 14t16 31h48z" />
<glyph unicode="&#xd2;" horiz-adv-x="611" d="M553 390q0 -199 -47 -293q-58 -115 -200 -115q-141 0 -199 115q-48 96 -48 294q0 217 73 303q60 71 176 71q109 0 169 -67q48 -53 65 -150q11 -61 11 -158zM467 404q0 136 -35 206q-40 80 -127 80q-73 0 -112 -57q-48 -70 -48 -235q0 -185 29 -256q35 -85 132 -85 q101 0 135 94q26 72 26 253zM372 818h-67l-131 141h109z" />
<glyph unicode="&#xd3;" horiz-adv-x="611" d="M553 390q0 -199 -47 -293q-58 -115 -200 -115q-141 0 -199 115q-48 96 -48 294q0 217 73 303q60 71 176 71q109 0 169 -67q48 -53 65 -150q11 -61 11 -158zM467 404q0 136 -35 206q-40 80 -127 80q-73 0 -112 -57q-48 -70 -48 -235q0 -185 29 -256q35 -85 132 -85 q101 0 135 94q26 72 26 253zM437 959l-131 -141h-67l89 141h109z" />
<glyph unicode="&#xd4;" horiz-adv-x="611" d="M553 390q0 -199 -47 -293q-58 -115 -200 -115q-141 0 -199 115q-48 96 -48 294q0 217 73 303q60 71 176 71q109 0 169 -67q48 -53 65 -150q11 -61 11 -158zM467 404q0 136 -35 206q-40 80 -127 80q-73 0 -112 -57q-48 -70 -48 -235q0 -185 29 -256q35 -85 132 -85 q101 0 135 94q26 72 26 253zM452 818h-80l-66 94l-66 -94h-80l99 141h93z" />
<glyph unicode="&#xd5;" horiz-adv-x="611" d="M553 390q0 -199 -47 -293q-58 -115 -200 -115q-141 0 -199 115q-48 96 -48 294q0 217 73 303q60 71 176 71q109 0 169 -67q48 -53 65 -150q11 -61 11 -158zM467 404q0 136 -35 206q-40 80 -127 80q-73 0 -112 -57q-48 -70 -48 -235q0 -185 29 -256q35 -85 132 -85 q101 0 135 94q26 72 26 253zM476 943q0 -43 -26 -74q-29 -35 -74 -35q-24 0 -93 25q-36 13 -51 13q-18 0 -31 -12t-17 -33h-48q5 50 32 79.5t68 29.5q23 0 93 -25q36 -13 53 -13q16 0 30 14t16 31h48z" />
<glyph unicode="&#xd6;" horiz-adv-x="611" d="M553 390q0 -199 -47 -293q-58 -115 -200 -115q-141 0 -199 115q-48 96 -48 294q0 217 73 303q60 71 176 71q109 0 169 -67q48 -53 65 -150q11 -61 11 -158zM467 404q0 136 -35 206q-40 80 -127 80q-73 0 -112 -57q-48 -70 -48 -235q0 -185 29 -256q35 -85 132 -85 q101 0 135 94q26 72 26 253zM420 844h-79v100h79v-100zM270 844h-79v100h79v-100z" />
<glyph unicode="&#xd7;" d="M457 97l-50 -49l-157 157l-158 -157l-48 49l157 157l-157 157l50 49l156 -157l158 158l49 -50l-157 -157z" />
<glyph unicode="&#xd8;" horiz-adv-x="611" d="M573 774l-70 -112q32 -55 44 -139q8 -55 8 -130q0 -199 -48 -294q-59 -117 -202 -117q-58 0 -102.5 21t-72.5 58l-64 -104l-37 24l76 122q-26 52 -36 123.5t-10 169.5q0 216 73 300q60 69 176 69q57 0 98.5 -17t69.5 -48l60 96zM429 624q-18 33 -50.5 49.5t-78.5 16.5 q-45 0 -72.5 -19t-47 -58.5t-27.5 -94t-8 -117.5q0 -55 4 -111.5t13 -94.5zM469 390q0 118 -20 184l-270 -435q36 -82 128 -82q52 0 86 22.5t50 71.5t21 111.5t5 127.5z" />
<glyph unicode="&#xd9;" horiz-adv-x="611" d="M531 183q0 -107 -69 -158q-58 -43 -155 -43q-111 0 -168.5 52.5t-57.5 146.5v569h83v-547q0 -70 30 -105q35 -41 112 -41q142 0 142 147v546h83v-567zM372 818h-67l-131 141h109z" />
<glyph unicode="&#xda;" horiz-adv-x="611" d="M531 183q0 -107 -69 -158q-58 -43 -155 -43q-111 0 -168.5 52.5t-57.5 146.5v569h83v-547q0 -70 30 -105q35 -41 112 -41q142 0 142 147v546h83v-567zM437 959l-131 -141h-67l89 141h109z" />
<glyph unicode="&#xdb;" horiz-adv-x="611" d="M531 183q0 -107 -69 -158q-58 -43 -155 -43q-111 0 -168.5 52.5t-57.5 146.5v569h83v-547q0 -70 30 -105q35 -41 112 -41q142 0 142 147v546h83v-567zM452 818h-80l-66 94l-66 -94h-80l99 141h93z" />
<glyph unicode="&#xdc;" horiz-adv-x="611" d="M531 183q0 -107 -69 -158q-58 -43 -155 -43q-111 0 -168.5 52.5t-57.5 146.5v569h83v-547q0 -70 30 -105q35 -41 112 -41q142 0 142 147v546h83v-567zM420 844h-79v100h79v-100zM270 844h-79v100h79v-100z" />
<glyph unicode="&#xdd;" horiz-adv-x="556" d="M546 750l-227 -459v-291h-83v291l-225 459h92l175 -376l176 376h92zM410 959l-131 -141h-67l89 141h109z" />
<glyph unicode="&#xde;" horiz-adv-x="556" d="M519 383q0 -71 -24 -122t-76 -77q-27 -14 -73.5 -19.5t-106.5 -5.5h-70v-159h-83v750h83v-159h119q58 0 101 -11.5t74 -42.5q25 -25 40.5 -64.5t15.5 -89.5zM433 378q0 72 -36 105t-124 33h-104v-282h81q100 0 139 28q44 31 44 116z" />
<glyph unicode="&#xdf;" d="M445 228q0 -110 -38 -171.5t-115 -61.5q-24 0 -41 3t-31 12v78q14 -13 31.5 -20t39.5 -7q42 0 59 51q13 38 13 109q0 58 -6 92t-27 55q-15 15 -35.5 20t-63.5 5v67q57 0 84.5 26.5t27.5 86.5q0 64 -31 97q-27 28 -71 28q-28 0 -51 -17q-18 -13 -25.5 -29t-11 -39 t-3.5 -48v-565h-79v550q0 61 13 100t43 69q46 46 122 46q78 0 124 -51t46 -135q0 -57 -18.5 -92t-60.5 -55q53 -22 79 -71.5t26 -132.5z" />
<glyph unicode="&#xe0;" horiz-adv-x="444" d="M417 0q-9 -2 -16.5 -3.5t-19.5 -1.5q-42 0 -59.5 15t-22.5 65q-18 -41 -52.5 -65.5t-75.5 -24.5q-71 0 -105.5 39t-34.5 123q0 68 38 107q19 19 58 36l119 48q32 13 39.5 24t7.5 45q0 52 -15 72q-19 25 -72 25q-47 0 -64.5 -18.5t-17.5 -68.5v-11h-71v13q0 152 162 152 q81 0 121 -42q33 -35 33 -95v-340q0 -16 3.5 -26.5t25.5 -10.5l19 1v-58zM287 165v135q-5 -3 -26 -14q-14 -7 -35 -17l-60 -27q-53 -24 -53 -100q0 -90 75 -90q41 0 70 29.5t29 83.5zM289 624h-67l-131 141h109z" />
<glyph unicode="&#xe1;" horiz-adv-x="444" d="M417 0q-9 -2 -16.5 -3.5t-19.5 -1.5q-42 0 -59.5 15t-22.5 65q-18 -41 -52.5 -65.5t-75.5 -24.5q-71 0 -105.5 39t-34.5 123q0 68 38 107q19 19 58 36l119 48q32 13 39.5 24t7.5 45q0 52 -15 72q-19 25 -72 25q-47 0 -64.5 -18.5t-17.5 -68.5v-11h-71v13q0 152 162 152 q81 0 121 -42q33 -35 33 -95v-340q0 -16 3.5 -26.5t25.5 -10.5l19 1v-58zM287 165v135q-5 -3 -26 -14q-14 -7 -35 -17l-60 -27q-53 -24 -53 -100q0 -90 75 -90q41 0 70 29.5t29 83.5zM354 765l-131 -141h-67l89 141h109z" />
<glyph unicode="&#xe2;" horiz-adv-x="444" d="M417 0q-9 -2 -16.5 -3.5t-19.5 -1.5q-42 0 -59.5 15t-22.5 65q-18 -41 -52.5 -65.5t-75.5 -24.5q-71 0 -105.5 39t-34.5 123q0 68 38 107q19 19 58 36l119 48q32 13 39.5 24t7.5 45q0 52 -15 72q-19 25 -72 25q-47 0 -64.5 -18.5t-17.5 -68.5v-11h-71v13q0 152 162 152 q81 0 121 -42q33 -35 33 -95v-340q0 -16 3.5 -26.5t25.5 -10.5l19 1v-58zM287 165v135q-5 -3 -26 -14q-14 -7 -35 -17l-60 -27q-53 -24 -53 -100q0 -90 75 -90q41 0 70 29.5t29 83.5zM369 624h-80l-66 94l-66 -94h-80l99 141h93z" />
<glyph unicode="&#xe3;" horiz-adv-x="444" d="M417 0q-9 -2 -16.5 -3.5t-19.5 -1.5q-42 0 -59.5 15t-22.5 65q-18 -41 -52.5 -65.5t-75.5 -24.5q-71 0 -105.5 39t-34.5 123q0 68 38 107q19 19 58 36l119 48q32 13 39.5 24t7.5 45q0 52 -15 72q-19 25 -72 25q-47 0 -64.5 -18.5t-17.5 -68.5v-11h-71v13q0 152 162 152 q81 0 121 -42q33 -35 33 -95v-340q0 -16 3.5 -26.5t25.5 -10.5l19 1v-58zM287 165v135q-5 -3 -26 -14q-14 -7 -35 -17l-60 -27q-53 -24 -53 -100q0 -90 75 -90q41 0 70 29.5t29 83.5zM393 749q0 -43 -26 -74q-29 -35 -74 -35q-24 0 -93 25q-36 13 -51 13q-18 0 -31 -12 t-17 -33h-48q5 50 32 79.5t68 29.5q23 0 93 -25q36 -13 53 -13q16 0 30 14t16 31h48z" />
<glyph unicode="&#xe4;" horiz-adv-x="444" d="M417 0q-9 -2 -16.5 -3.5t-19.5 -1.5q-42 0 -59.5 15t-22.5 65q-18 -41 -52.5 -65.5t-75.5 -24.5q-71 0 -105.5 39t-34.5 123q0 68 38 107q19 19 58 36l119 48q32 13 39.5 24t7.5 45q0 52 -15 72q-19 25 -72 25q-47 0 -64.5 -18.5t-17.5 -68.5v-11h-71v13q0 152 162 152 q81 0 121 -42q33 -35 33 -95v-340q0 -16 3.5 -26.5t25.5 -10.5l19 1v-58zM287 165v135q-5 -3 -26 -14q-14 -7 -35 -17l-60 -27q-53 -24 -53 -100q0 -90 75 -90q41 0 70 29.5t29 83.5zM337 650h-79v100h79v-100zM187 650h-79v100h79v-100z" />
<glyph unicode="&#xe5;" horiz-adv-x="444" d="M417 0q-9 -2 -16.5 -3.5t-19.5 -1.5q-42 0 -59.5 15t-22.5 65q-18 -41 -52.5 -65.5t-75.5 -24.5q-71 0 -105.5 39t-34.5 123q0 68 38 107q19 19 58 36l119 48q32 13 39.5 24t7.5 45q0 52 -15 72q-19 25 -72 25q-47 0 -64.5 -18.5t-17.5 -68.5v-11h-71v13q0 152 162 152 q81 0 121 -42q33 -35 33 -95v-340q0 -16 3.5 -26.5t25.5 -10.5l19 1v-58zM287 165v135q-5 -3 -26 -14q-14 -7 -35 -17l-60 -27q-53 -24 -53 -100q0 -90 75 -90q41 0 70 29.5t29 83.5zM324 695q0 -42 -30 -72t-71 -30q-43 0 -73 30t-30 72q0 41 31 71t71 30q42 0 72 -29 t30 -72zM284 695q0 24 -18.5 42.5t-43.5 18.5q-24 0 -43 -19t-19 -42q0 -25 18.5 -43.5t44.5 -18.5q23 0 42 19t19 43z" />
<glyph unicode="&#xe6;" horiz-adv-x="667" d="M630 270h-260v-68q0 -34 5.5 -65.5t18 -58t66.5 -26.5q43 0 67 30.5t24 98.5h73q0 -94 -43.5 -145t-118.5 -51q-54 0 -87 22t-54 69q-28 -47 -67 -69t-92 -22q-63 0 -99.5 39.5t-36.5 110.5q0 58 19 93.5t62 56.5q20 10 61 25q86 32 89 33q22 11 30 26.5t8 42.5 q0 90 -85 90q-86 0 -86 -90v-8h-75q0 79 41 123t116 44q41 0 75 -15.5t56 -47.5q22 29 52.5 45t70.5 16q92 0 133 -69q37 -62 37 -182v-48zM548 335v23q0 65 -19 102q-22 42 -65 42q-58 0 -79 -49q-15 -35 -15 -118h178zM288 182v117l-106 -50q-37 -18 -55.5 -43.5 t-18.5 -66.5t18.5 -64t59.5 -23q32 0 55 13t35 37q7 15 9.5 31.5t2.5 48.5z" />
<glyph unicode="&#xe7;" horiz-adv-x="444" d="M405 194q0 -85 -33 -139q-43 -70 -135 -70q-120 0 -164 98q-29 64 -29 189q0 170 56 240q47 59 135 59q81 0 125 -55q41 -51 41 -135h-74q0 123 -92 123q-70 0 -94 -84q-15 -52 -15 -152q0 -93 14 -138q24 -78 92 -78q50 0 74 33t24 109h75zM337 -132q0 -46 -37 -71 q-32 -21 -84 -21q-27 0 -59 9q-15 4 -35 12l17 40q16 -6 33.5 -10.5t34.5 -4.5q25 0 40 12.5t15 25.5q0 18 -13.5 30.5t-35.5 12.5q-9 0 -14 -1q-1 0 -25 -7l-17 19l63 86h48l-46 -62q9 3 24 3q42 0 66.5 -19.5t24.5 -53.5z" />
<glyph unicode="&#xe8;" horiz-adv-x="444" d="M395 271h-270q0 -31 1 -71.5t11 -76.5q19 -71 87 -71q47 0 70 30.5t23 78.5v24h74v-16q0 -78 -40 -128q-45 -56 -126 -56q-92 0 -137 70.5t-45 223.5q0 124 38 200q46 92 140 92q93 0 134 -60q38 -56 38 -172zM313 336l-2 43q0 58 -19 89q-22 36 -70 36q-59 0 -81 -54 q-16 -39 -16 -114h188zM289 624h-67l-131 141h109z" />
<glyph unicode="&#xe9;" horiz-adv-x="444" d="M395 271h-270q0 -31 1 -71.5t11 -76.5q19 -71 87 -71q47 0 70 30.5t23 78.5v24h74v-16q0 -78 -40 -128q-45 -56 -126 -56q-92 0 -137 70.5t-45 223.5q0 124 38 200q46 92 140 92q93 0 134 -60q38 -56 38 -172zM313 336l-2 43q0 58 -19 89q-22 36 -70 36q-59 0 -81 -54 q-16 -39 -16 -114h188zM354 765l-131 -141h-67l89 141h109z" />
<glyph unicode="&#xea;" horiz-adv-x="444" d="M395 271h-270q0 -31 1 -71.5t11 -76.5q19 -71 87 -71q47 0 70 30.5t23 78.5v24h74v-16q0 -78 -40 -128q-45 -56 -126 -56q-92 0 -137 70.5t-45 223.5q0 124 38 200q46 92 140 92q93 0 134 -60q38 -56 38 -172zM313 336l-2 43q0 58 -19 89q-22 36 -70 36q-59 0 -81 -54 q-16 -39 -16 -114h188zM369 624h-80l-66 94l-66 -94h-80l99 141h93z" />
<glyph unicode="&#xeb;" horiz-adv-x="444" d="M395 271h-270q0 -31 1 -71.5t11 -76.5q19 -71 87 -71q47 0 70 30.5t23 78.5v24h74v-16q0 -78 -40 -128q-45 -56 -126 -56q-92 0 -137 70.5t-45 223.5q0 124 38 200q46 92 140 92q93 0 134 -60q38 -56 38 -172zM313 336l-2 43q0 58 -19 89q-22 36 -70 36q-59 0 -81 -54 q-16 -39 -16 -114h188zM337 650h-79v100h79v-100zM187 650h-79v100h79v-100z" />
<glyph unicode="&#xec;" horiz-adv-x="222" d="M151 0h-79v556h79v-556zM178 624h-67l-131 141h109z" />
<glyph unicode="&#xed;" horiz-adv-x="222" d="M151 0h-79v556h79v-556zM243 765l-131 -141h-67l89 141h109z" />
<glyph unicode="&#xee;" horiz-adv-x="222" d="M151 0h-79v556h79v-556zM258 624h-80l-66 94l-66 -94h-80l99 141h93z" />
<glyph unicode="&#xef;" horiz-adv-x="222" d="M151 0h-79v556h79v-556zM226 650h-79v100h79v-100zM76 650h-79v100h79v-100z" />
<glyph unicode="&#xf0;" d="M440 303q0 -150 -37 -225q-46 -93 -155 -93q-65 0 -104.5 23.5t-61 66.5t-31 97.5t-9.5 120.5q0 49 8.5 99t24.5 82q22 43 65 70t101 27q53 0 93 -23q-9 40 -16 60t-23 43l-66 -50l-38 46l53 40q-20 7 -60.5 10.5t-81.5 3.5v49q165 0 199 -21l55 41l38 -46l-43 -32 q41 -47 63.5 -127.5t22.5 -173.5zM358 273q0 107 -19 159q-26 72 -95 72q-59 0 -87 -44q-33 -53 -33 -186q0 -106 21 -156q28 -66 97 -66q63 0 89.5 54.5t26.5 166.5z" />
<glyph unicode="&#xf1;" d="M428 0h-79v408q0 54 -24 77q-20 19 -58 19q-48 0 -83 -35q-17 -17 -24.5 -39t-7.5 -56v-374h-79v556h77v-61q31 36 58 53q37 23 82 23q73 0 109 -44q29 -36 29 -94v-433zM421 749q0 -43 -26 -74q-29 -35 -74 -35q-24 0 -93 25q-36 13 -51 13q-18 0 -31 -12t-17 -33h-48 q5 50 32 79.5t68 29.5q23 0 93 -25q36 -13 53 -13q16 0 30 14t16 31h48z" />
<glyph unicode="&#xf2;" d="M449 295q0 -144 -38 -218q-47 -92 -158 -92q-93 0 -141 58q-61 74 -61 252q0 128 45 198q50 78 155 78q91 0 142 -64q56 -71 56 -212zM367 267q0 127 -26.5 182t-91.5 55q-68 0 -95 -69q-21 -54 -21 -164q0 -111 27 -165t90 -54t90 52.5t27 162.5zM317 624h-67l-131 141 h109z" />
<glyph unicode="&#xf3;" d="M449 295q0 -144 -38 -218q-47 -92 -158 -92q-93 0 -141 58q-61 74 -61 252q0 128 45 198q50 78 155 78q91 0 142 -64q56 -71 56 -212zM367 267q0 127 -26.5 182t-91.5 55q-68 0 -95 -69q-21 -54 -21 -164q0 -111 27 -165t90 -54t90 52.5t27 162.5zM382 765l-131 -141h-67 l89 141h109z" />
<glyph unicode="&#xf4;" d="M449 295q0 -144 -38 -218q-47 -92 -158 -92q-93 0 -141 58q-61 74 -61 252q0 128 45 198q50 78 155 78q91 0 142 -64q56 -71 56 -212zM367 267q0 127 -26.5 182t-91.5 55q-68 0 -95 -69q-21 -54 -21 -164q0 -111 27 -165t90 -54t90 52.5t27 162.5zM397 624h-80l-66 94 l-66 -94h-80l99 141h93z" />
<glyph unicode="&#xf5;" d="M449 295q0 -144 -38 -218q-47 -92 -158 -92q-93 0 -141 58q-61 74 -61 252q0 128 45 198q50 78 155 78q91 0 142 -64q56 -71 56 -212zM367 267q0 127 -26.5 182t-91.5 55q-68 0 -95 -69q-21 -54 -21 -164q0 -111 27 -165t90 -54t90 52.5t27 162.5zM421 749q0 -43 -26 -74 q-29 -35 -74 -35q-24 0 -93 25q-36 13 -51 13q-18 0 -31 -12t-17 -33h-48q5 50 32 79.5t68 29.5q23 0 93 -25q36 -13 53 -13q16 0 30 14t16 31h48z" />
<glyph unicode="&#xf6;" d="M449 295q0 -144 -38 -218q-47 -92 -158 -92q-93 0 -141 58q-61 74 -61 252q0 128 45 198q50 78 155 78q91 0 142 -64q56 -71 56 -212zM367 267q0 127 -26.5 182t-91.5 55q-68 0 -95 -69q-21 -54 -21 -164q0 -111 27 -165t90 -54t90 52.5t27 162.5zM365 650h-79v100h79 v-100zM215 650h-79v100h79v-100z" />
<glyph unicode="&#xf7;" d="M289 405h-79v100h79v-100zM457 219h-413v70h413v-70zM289 3h-79v100h79v-100z" />
<glyph unicode="&#xf8;" d="M472 559l-57 -83q14 -26 24 -74t10 -102q0 -167 -52 -245q-47 -70 -139 -70q-48 0 -83 12.5t-60 42.5l-59 -86l-31 19l68 99q-21 34 -31.5 94.5t-10.5 129.5q0 130 46 199q50 76 154 76q49 0 84 -17t58 -46l51 74zM344 437q-13 34 -36.5 50.5t-57.5 16.5q-62 0 -89.5 -55 t-27.5 -177q0 -31 4 -63.5t10 -57.5zM367 274q0 67 -11 117l-194 -283q11 -24 32.5 -40t54.5 -16q68 0 95 61q23 51 23 161z" />
<glyph unicode="&#xf9;" d="M424 0h-79v73q-20 -38 -55 -63t-79 -25q-79 0 -112 52q-22 35 -22 92v427h79v-430q0 -41 15 -57.5t59 -16.5q46 0 80.5 34.5t34.5 111.5v358h79v-556zM317 624h-67l-131 141h109z" />
<glyph unicode="&#xfa;" d="M424 0h-79v73q-20 -38 -55 -63t-79 -25q-79 0 -112 52q-22 35 -22 92v427h79v-430q0 -41 15 -57.5t59 -16.5q46 0 80.5 34.5t34.5 111.5v358h79v-556zM382 765l-131 -141h-67l89 141h109z" />
<glyph unicode="&#xfb;" d="M424 0h-79v73q-20 -38 -55 -63t-79 -25q-79 0 -112 52q-22 35 -22 92v427h79v-430q0 -41 15 -57.5t59 -16.5q46 0 80.5 34.5t34.5 111.5v358h79v-556zM397 624h-80l-66 94l-66 -94h-80l99 141h93z" />
<glyph unicode="&#xfc;" d="M424 0h-79v73q-20 -38 -55 -63t-79 -25q-79 0 -112 52q-22 35 -22 92v427h79v-430q0 -41 15 -57.5t59 -16.5q46 0 80.5 34.5t34.5 111.5v358h79v-556zM365 650h-79v100h79v-100zM215 650h-79v100h79v-100z" />
<glyph unicode="&#xfd;" horiz-adv-x="444" d="M425 556l-179 -576q-28 -89 -54 -122q-38 -48 -110 -48q-24 0 -57 9v70q26 -12 59 -12q31 0 50 14.5t30 44.5l18 51l-177 569h82l125 -482l131 482h82zM354 765l-131 -141h-67l89 141h109z" />
<glyph unicode="&#xfe;" d="M447 311q0 -143 -33 -222q-43 -104 -144 -104q-40 0 -66 16.5t-53 56.5v-246h-79v938h76v-256q18 39 57 60q31 17 62 17q89 0 137 -78q43 -70 43 -182zM365 287q0 95 -21 149q-27 68 -88 68q-68 0 -91 -84q-14 -50 -14 -152t16 -147q24 -69 92 -69q49 0 75 45 q31 55 31 190z" />
<glyph unicode="&#xff;" horiz-adv-x="444" d="M425 556l-179 -576q-28 -89 -54 -122q-38 -48 -110 -48q-24 0 -57 9v70q26 -12 59 -12q31 0 50 14.5t30 44.5l18 51l-177 569h82l125 -482l131 482h82zM337 650h-79v100h79v-100zM187 650h-79v100h79v-100z" />
<glyph unicode="&#x131;" horiz-adv-x="222" d="M151 0h-79v556h79v-556z" />
<glyph unicode="&#x141;" d="M472 0h-389v325l-96 -81v88l96 81v337h83v-267l136 116v-88l-136 -116v-320h306v-75z" />
<glyph unicode="&#x142;" horiz-adv-x="222" d="M231 480l-80 -55v-425h-79v372l-80 -55v74l80 53v306h79v-255l80 53v-68z" />
<glyph unicode="&#x152;" horiz-adv-x="833" d="M787 675h-275v-246h257v-75h-257v-279h273v-75h-351v59q-39 -41 -57 -53q-37 -24 -91 -24q-64 0 -109 30.5t-76 91.5q-22 45 -33.5 113t-11.5 145q0 109 10 171t37.5 116.5t75.5 85t109 30.5q87 0 144 -79l2 64h353v-75zM426 229v312q0 73 -33 111t-93 38q-56 0 -91 -31 q-42 -37 -53 -114q-7 -53 -10.5 -94t-3.5 -101q0 -128 26 -197q36 -96 124 -96q71 0 104 46q30 42 30 126z" />
<glyph unicode="&#x153;" horiz-adv-x="722" d="M676 336l-2 -62h-260l1 -54q0 -78 13 -112q22 -56 82 -56q42 0 62.5 32t26.5 100h75q0 -89 -44 -144t-118 -55q-96 0 -141 80q-24 -39 -59.5 -59.5t-81.5 -20.5q-91 0 -136 55q-54 66 -54 250q0 121 32 188q45 93 150 93q49 0 89.5 -20.5t62.5 -57.5q20 36 52.5 57 t75.5 21q96 0 140 -77q34 -60 34 -158zM599 339q0 49 -3.5 77.5t-14.5 48.5q-20 39 -70 39q-27 0 -45.5 -11t-31.5 -36q-20 -40 -20 -118h185zM333 281q0 125 -21 174t-77 49q-73 0 -98 -80q-15 -49 -15 -159q0 -97 14 -140q24 -73 94 -73q64 0 86 59q17 46 17 170z" />
<glyph unicode="&#x160;" horiz-adv-x="556" d="M505 208q0 -103 -60.5 -164.5t-173.5 -61.5q-56 0 -95 14.5t-68 43.5q-34 34 -45.5 75.5t-11.5 122.5h83v-32q0 -74 29 -109q33 -40 113 -40q67 0 105 34t38 96q0 58 -15.5 85t-57.5 42l-139 51q-81 30 -111 67q-35 44 -35 130q0 87 55 143q59 60 156 60q96 0 153.5 -48 t57.5 -139v-25h-83l1 15q0 54 -32 88t-85 34q-69 0 -103 -31t-34 -102q0 -43 19 -68q16 -21 55 -36l126 -48q92 -35 125 -76.5t33 -120.5zM425 959l-100 -141h-93l-99 141h80l66 -94l66 94h80z" />
<glyph unicode="&#x161;" horiz-adv-x="444" d="M400 149q0 -58 -35 -102q-49 -62 -152 -62q-90 0 -135 52q-35 41 -35 102v23h75q0 -50 12 -72q21 -38 83 -38q54 0 79.5 23.5t25.5 69.5q0 49 -43 74q-7 4 -85.5 33.5t-106.5 56.5q-38 36 -38 104q0 74 46 116t117 42q98 0 140 -52q32 -40 32 -112h-77v16q0 45 -23.5 63 t-64.5 18q-45 0 -66.5 -22.5t-21.5 -63.5q0 -43 35 -67q13 -9 80 -36q93 -38 122 -65q36 -34 36 -101zM369 765l-100 -141h-93l-99 141h80l66 -94l66 94h80z" />
<glyph unicode="&#x178;" horiz-adv-x="556" d="M546 750l-227 -459v-291h-83v291l-225 459h92l175 -376l176 376h92zM393 844h-79v100h79v-100zM243 844h-79v100h79v-100z" />
<glyph unicode="&#x17d;" d="M473 0h-445v72l354 603h-345v75h431v-72l-354 -603h359v-75zM397 959l-100 -141h-93l-99 141h80l66 -94l66 94h80z" />
<glyph unicode="&#x17e;" horiz-adv-x="389" d="M366 0h-342v62l258 429h-247v65h329v-65l-258 -426h260v-65zM341 765l-100 -141h-93l-99 141h80l66 -94l66 94h80z" />
<glyph unicode="&#x192;" d="M488 739l-17 -77q-21 21 -54 21q-20 0 -34.5 -9.5t-25.5 -31t-25 -89.5q-9 -42 -15 -78h121v-67h-130l-51 -323q-14 -86 -33 -146q-22 -69 -50 -97q-14 -14 -45.5 -24t-54.5 -10q-16 0 -33 3.5t-31 9.5l10 68q9 -6 20 -8.5t23 -2.5q16 0 33.5 5t27 14.5t21.5 49t22 104.5 l59 357h-110v67h122q11 71 22 113.5t27 74.5q44 87 131 87q39 0 70 -11z" />
<glyph unicode="&#x2ba;" horiz-adv-x="333" d="M440 765l-131 -141h-67l89 141h109zM259 765l-131 -141h-67l89 141h109z" />
<glyph unicode="&#x2c6;" horiz-adv-x="333" d="M313 624h-80l-66 94l-66 -94h-80l99 141h93z" />
<glyph unicode="&#x2c7;" horiz-adv-x="333" d="M313 765l-100 -141h-93l-99 141h80l66 -94l66 94h80z" />
<glyph unicode="&#x2d8;" horiz-adv-x="333" d="M321 765q0 -66 -42.5 -101t-113.5 -35q-75 0 -114 38.5t-39 97.5h49q8 -37 34.5 -57t72.5 -20q87 0 104 77h49z" />
<glyph unicode="&#x2d9;" horiz-adv-x="250" d="M165 650h-79v100h79v-100z" />
<glyph unicode="&#x2da;" horiz-adv-x="250" d="M227 695q0 -42 -30 -72t-71 -30q-43 0 -73 30t-30 72q0 41 31 71t71 30q42 0 72 -29t30 -72zM187 695q0 24 -18.5 42.5t-43.5 18.5q-24 0 -43 -19t-19 -42q0 -25 18.5 -43.5t44.5 -18.5q23 0 42 19t19 43z" />
<glyph unicode="&#x2db;" horiz-adv-x="333" d="M208 -171q-43 -20 -83 -20q-52 0 -88.5 25t-36.5 70q0 21 6 46t23 63h67q-9 -14 -18 -41.5t-9 -43.5q0 -24 15 -36t42 -12q34 0 46 3.5t36 24.5v-79z" />
<glyph unicode="&#x2dc;" horiz-adv-x="333" d="M337 749q0 -43 -26 -74q-29 -35 -74 -35q-24 0 -93 25q-36 13 -51 13q-18 0 -31 -12t-17 -33h-48q5 50 32 79.5t68 29.5q23 0 93 -25q36 -13 53 -13q16 0 30 14t16 31h48z" />
<glyph unicode="&#x2013;" d="M500 275h-500v70h500v-70z" />
<glyph unicode="&#x2014;" horiz-adv-x="1000" d="M1000 275h-1000v70h1000v-70z" />
<glyph unicode="&#x2018;" horiz-adv-x="222" d="M158 521h-94v95q0 51 14 83q22 51 80 68v-45q-26 -6 -37.5 -33.5t-11.5 -68.5h49v-99z" />
<glyph unicode="&#x2019;" horiz-adv-x="222" d="M158 655q0 -51 -14 -83q-22 -51 -80 -68v45q26 6 37.5 33.5t11.5 68.5h-49v99h94v-95z" />
<glyph unicode="&#x201a;" horiz-adv-x="222" d="M158 5q0 -51 -14 -83q-22 -51 -80 -68v45q26 6 37.5 33.5t11.5 68.5h-49v99h94v-95z" />
<glyph unicode="&#x201c;" horiz-adv-x="389" d="M327 521h-94v95q0 51 14 83q22 51 80 68v-45q-26 -6 -37.5 -33.5t-11.5 -68.5h49v-99zM156 521h-94v95q0 51 14 83q22 51 80 68v-45q-26 -6 -37.5 -33.5t-11.5 -68.5h49v-99z" />
<glyph unicode="&#x201d;" horiz-adv-x="389" d="M327 655q0 -51 -14 -83q-22 -51 -80 -68v45q26 6 37.5 33.5t11.5 68.5h-49v99h94v-95zM156 655q0 -51 -14 -83q-22 -51 -80 -68v45q26 6 37.5 33.5t11.5 68.5h-49v99h94v-95z" />
<glyph unicode="&#x201e;" horiz-adv-x="389" d="M327 5q0 -51 -14 -83q-22 -51 -80 -68v45q26 6 37.5 33.5t11.5 68.5h-49v99h94v-95zM156 5q0 -51 -14 -83q-22 -51 -80 -68v45q26 6 37.5 33.5t11.5 68.5h-49v99h94v-95z" />
<glyph unicode="&#x2020;" d="M461 457h-171v-633h-80v633h-170v70h170v223h80v-223h171v-70z" />
<glyph unicode="&#x2021;" d="M462 51h-171v-227h-80v227h-172v70h171v328h-169v70h170v231h80v-231h171v-70h-171v-328h171v-70z" />
<glyph unicode="&#x2022;" horiz-adv-x="333" d="M318 374q0 -62 -45 -107t-107 -45q-63 0 -107 46t-44 107q0 63 44.5 108.5t107.5 45.5q61 0 106 -45t45 -110z" />
<glyph unicode="&#x2026;" horiz-adv-x="1000" d="M878 0h-91v100h91v-100zM545 0h-91v100h91v-100zM212 0h-91v100h91v-100z" />
<glyph unicode="&#x2030;" horiz-adv-x="1111" d="M1071 184q0 -104 -30.5 -144t-100.5 -40q-72 0 -105.5 47.5t-33.5 139.5q0 84 34 129.5t104 45.5q73 0 106 -56q26 -45 26 -122zM718 184q0 -104 -31 -144t-103 -40q-71 0 -103.5 47t-32.5 140q0 84 34 129.5t104 45.5q73 0 106 -56q26 -45 26 -122zM579 750l-341 -766 h-53l339 766h55zM317 558q0 -102 -34 -143q-30 -37 -100 -37q-74 0 -105 44.5t-31 138.5q0 84 34 129.5t105 45.5q72 0 105 -56q26 -45 26 -122zM1004 174q0 65 -12 94q-16 38 -57 38q-38 0 -52.5 -35t-14.5 -97q0 -61 16 -89.5t53 -28.5q38 0 54 34q13 28 13 84zM651 174 q0 65 -12 94q-16 38 -57 38q-38 0 -52.5 -35t-14.5 -97q0 -61 16 -89.5t53 -28.5q38 0 54 34q13 28 13 84zM250 544q0 66 -12 96q-16 40 -57 40q-39 0 -55 -40q-12 -31 -12 -95q0 -59 16 -85t53 -26t52 28t15 82z" />
<glyph unicode="&#x2039;" horiz-adv-x="278" d="M215 125l-151 156v61l151 153v-83l-100 -102l100 -102v-83z" />
<glyph unicode="&#x203a;" horiz-adv-x="278" d="M214 278l-151 -153v83l100 102l-100 102v83l151 -156v-61z" />
<glyph unicode="&#x2122;" horiz-adv-x="750" d="M719 329h-55v361l-120 -361h-32l-115 361l-2 -361h-55v421h89l99 -297l103 297h88v-421zM280 690h-109v-361h-61v361h-110v60h280v-60z" />
<glyph unicode="&#x2215;" horiz-adv-x="167" d="M341 750l-452 -750h-63l452 750h63z" />
<glyph unicode="&#xe000;" horiz-adv-x="555" d="M0 555h555v-555h-555v555z" />
<glyph unicode="&#xf001;" d="M425 650h-79v100h79v-100zM427 0h-79v556h79v-556zM259 489h-87v-489h-79v489h-81v67h80v59q0 69 21 98q28 39 106 39l40 -2v-67l-29 2q-35 0 -46.5 -16t-11.5 -57v-56h87v-67z" />
<glyph unicode="&#xf002;" d="M425 0h-79v750h79v-750zM259 489h-87v-489h-79v489h-81v67h80v59q0 69 21 98q28 39 106 39l40 -2v-67l-29 2q-35 0 -46.5 -16t-11.5 -57v-56h87v-67z" />
</font>
</defs>
</svg>
